inDegrees=no
DataType=double
version=3
OpenSimVersion=4.4-2022-10-11-798caa840
endheader
time	elv_angle	shoulder_elv	shoulder_rot	elbow_flexion	pro_sup	deviation	flexion
2.4020851434	0.6332157254	1.3096886873	0.4363323152	1.6755659580	0.0000000000	0.0000000000	0.0000000000
2.4062554301	0.6332157254	1.3096886873	0.4363323152	1.6755659580	0.0000000000	0.0000000000	0.0000000000
2.4104257168	0.6332157254	1.3096886873	0.4363323152	1.6755659580	0.0000000000	0.0000000000	0.0000000000
2.4145960035	0.6332157254	1.3096886873	0.4363323152	1.6755659580	0.0000000000	0.0000000000	0.0000000000
2.4187662902	0.6332157254	1.3096886873	0.4363323152	1.6755659580	0.0000000000	0.0000000000	0.0000000000
2.4229365769	0.6332157254	1.3096886873	0.4363323152	1.6755659580	0.0000000000	0.0000000000	0.0000000000
2.4271068636	0.6332157254	1.3096886873	0.4363323152	1.6755659580	0.0000000000	0.0000000000	0.0000000000
2.4312771503	0.6332157254	1.3096886873	0.4363323152	1.6755659580	0.0000000000	0.0000000000	0.0000000000
2.4354474370	0.6332157254	1.3096886873	0.4363323152	1.6755659580	0.0000000000	0.0000000000	0.0000000000
2.4396177237	0.6332157254	1.3096886873	0.4363323152	1.6755659580	0.0000000000	0.0000000000	0.0000000000
2.4437880104	0.6332157254	1.3096886873	0.4363323152	1.6755659580	0.0000000000	0.0000000000	0.0000000000
2.4479582971	0.6332157254	1.3096886873	0.4363323152	1.6755659580	0.0000000000	0.0000000000	0.0000000000
2.4521285838	0.6332157254	1.3096886873	0.4363323152	1.6755659580	0.0000000000	0.0000000000	0.0000000000
2.4562988705	0.6332157254	1.3096886873	0.4363323152	1.6755659580	0.0000000000	0.0000000000	0.0000000000
2.4604691573	0.6332157254	1.3096886873	0.4363323152	1.6755659580	0.0000000000	0.0000000000	0.0000000000
2.4646394440	0.6332157254	1.3096886873	0.4363323152	1.6755659580	0.0000000000	0.0000000000	0.0000000000
2.4688097307	0.6332157254	1.3096886873	0.4363323152	1.6755659580	0.0000000000	0.0000000000	0.0000000000
2.4729800174	0.6332157254	1.3096886873	0.4363323152	1.6755659580	0.0000000000	0.0000000000	0.0000000000
2.4771503041	0.6332157254	1.3096886873	0.4363323152	1.6755659580	0.0000000000	0.0000000000	0.0000000000
2.4813205908	0.6332157254	1.3096886873	0.4363323152	1.6755659580	0.0000000000	0.0000000000	0.0000000000
2.4854908775	0.6332157254	1.3096886873	0.4363323152	1.6755659580	0.0000000000	0.0000000000	0.0000000000
2.4896611642	0.6332157254	1.3096886873	0.4363323152	1.6755659580	0.0000000000	0.0000000000	0.0000000000
2.4938314509	0.6332157254	1.3096886873	0.4363323152	1.6755659580	0.0000000000	0.0000000000	0.0000000000
2.4980017376	0.6332157254	1.3096886873	0.4363323152	1.6755659580	0.0000000000	0.0000000000	0.0000000000
2.5021720243	0.6332157254	1.3096886873	0.4363323152	1.6755659580	0.0000000000	0.0000000000	0.0000000000
2.5063423110	0.6332157254	1.3096886873	0.4363323152	1.6755659580	0.0000000000	0.0000000000	0.0000000000
2.5105125977	0.6332157254	1.3096886873	0.4363323152	1.6755659580	0.0000000000	0.0000000000	0.0000000000
2.5146828844	0.6332157254	1.3096886873	0.4363323152	1.6755659580	0.0000000000	0.0000000000	0.0000000000
2.5188531712	0.6332157254	1.3096886873	0.4363323152	1.6755659580	0.0000000000	0.0000000000	0.0000000000
2.5230234579	0.6332157254	1.3096886873	0.4363323152	1.6755659580	0.0000000000	0.0000000000	0.0000000000
2.5271937446	0.6332157254	1.3096886873	0.4363323152	1.6755659580	0.0000000000	0.0000000000	0.0000000000
2.5313640313	0.6332157254	1.3096886873	0.4363323152	1.6755659580	0.0000000000	0.0000000000	0.0000000000
2.5355343180	0.6332157254	1.3096886873	0.4363323152	1.6755659580	0.0000000000	0.0000000000	0.0000000000
2.5397046047	0.6332157254	1.3096886873	0.4363323152	1.6755659580	0.0000000000	0.0000000000	0.0000000000
2.5438748914	0.6332157254	1.3096886873	0.4363323152	1.6755659580	0.0000000000	0.0000000000	0.0000000000
2.5480451781	0.6332157254	1.3096886873	0.4363323152	1.6755659580	0.0000000000	0.0000000000	0.0000000000
2.5522154648	0.6332157254	1.3096886873	0.4363323152	1.6755659580	0.0000000000	0.0000000000	0.0000000000
2.5563857515	0.6332157254	1.3096886873	0.4363323152	1.6755659580	0.0000000000	0.0000000000	0.0000000000
2.5605560382	0.6332157254	1.3096886873	0.4363323152	1.6755659580	0.0000000000	0.0000000000	0.0000000000
2.5647263249	0.6332157254	1.3096886873	0.4363323152	1.6755659580	0.0000000000	0.0000000000	0.0000000000
2.5688966116	0.6332157254	1.3096886873	0.4363323152	1.6755659580	0.0000000000	0.0000000000	0.0000000000
2.5730668983	0.6332157254	1.3096886873	0.4363323152	1.6755659580	0.0000000000	0.0000000000	0.0000000000
2.5772371851	0.6332157254	1.3096886873	0.4363323152	1.6755659580	0.0000000000	0.0000000000	0.0000000000
2.5814074718	0.6332157254	1.3096886873	0.4363323152	1.6755659580	0.0000000000	0.0000000000	0.0000000000
2.5855777585	0.6332157254	1.3096886873	0.4363323152	1.6755659580	0.0000000000	0.0000000000	0.0000000000
2.5897480452	0.6332157254	1.3096886873	0.4363323152	1.6755659580	0.0000000000	0.0000000000	0.0000000000
2.5939183319	0.6332157254	1.3096886873	0.4363323152	1.6755659580	0.0000000000	0.0000000000	0.0000000000
2.5980886186	0.6332157254	1.3096886873	0.4363323152	1.6755659580	0.0000000000	0.0000000000	0.0000000000
2.6022589053	0.6332157254	1.3096886873	0.4363323152	1.6755659580	0.0000000000	0.0000000000	0.0000000000
2.6064291920	0.6332157254	1.3096886873	0.4363323152	1.6755659580	0.0000000000	0.0000000000	0.0000000000
2.6105994787	0.6332157254	1.3096886873	0.4363323152	1.6755659580	0.0000000000	0.0000000000	0.0000000000
2.6147697654	0.6332157254	1.3096886873	0.4363323152	1.6755659580	0.0000000000	0.0000000000	0.0000000000
2.6189400521	0.6332157254	1.3096886873	0.4363323152	1.6755659580	0.0000000000	0.0000000000	0.0000000000
2.6231103388	0.6332157254	1.3096886873	0.4363323152	1.6755659580	0.0000000000	0.0000000000	0.0000000000
2.6272806255	0.6332157254	1.3096886873	0.4363323152	1.6755659580	0.0000000000	0.0000000000	0.0000000000
2.6314509123	0.6332157254	1.3096886873	0.4363323152	1.6755659580	0.0000000000	0.0000000000	0.0000000000
2.6356211990	0.6332157254	1.3096886873	0.4363323152	1.6755659580	0.0000000000	0.0000000000	0.0000000000
2.6397914857	0.6332157254	1.3096886873	0.4363323152	1.6755659580	0.0000000000	0.0000000000	0.0000000000
2.6439617724	0.6332157254	1.3096886873	0.4363323152	1.6755659580	0.0000000000	0.0000000000	0.0000000000
2.6481320591	0.6332157254	1.3096886873	0.4363323152	1.6755659580	0.0000000000	0.0000000000	0.0000000000
2.6523023458	0.6332157254	1.3096886873	0.4363323152	1.6755659580	0.0000000000	0.0000000000	0.0000000000
2.6564726325	0.6332165599	1.3096882105	0.4363323152	1.6755654812	0.0000000000	0.0000000000	0.0000000000
2.6606429192	0.6332224011	1.3096842766	0.4363323152	1.6755616665	0.0000000000	0.0000000000	0.0000000000
2.6648132059	0.6332380772	1.3096737862	0.4363323152	1.6755514145	0.0000000000	0.0000000000	0.0000000000
2.6689834926	0.6332681179	1.3096536398	0.4363323152	1.6755313873	0.0000000000	0.0000000000	0.0000000000
2.6731537793	0.6333166957	1.3096213341	0.4363323152	1.6754994392	0.0000000000	0.0000000000	0.0000000000
2.6773240660	0.6333878636	1.3095736504	0.4363323152	1.6754522324	0.0000000000	0.0000000000	0.0000000000
